<mxfile host="app.diagrams.net" agent="Mozilla/5.0 (Windows NT 10.0; Win64; x64) AppleWebKit/537.36 (KHTML, like Gecko) Chrome/139.0.0.0 Safari/537.36" version="28.2.7">
  <diagram name="Page-1" id="MbXUpl5bEWgm20yBPt8_">
    <mxGraphModel dx="1042" dy="630" grid="1" gridSize="10" guides="1" tooltips="1" connect="1" arrows="1" fold="1" page="1" pageScale="1" pageWidth="827" pageHeight="1169" math="0" shadow="0">
      <root>
        <mxCell id="0" />
        <mxCell id="1" parent="0" />
        <mxCell id="tnohbBcLHPByBjN4XRmJ-1" value="总论点" style="rounded=0;whiteSpace=wrap;html=1;" vertex="1" parent="1">
          <mxGeometry x="360" y="70" width="120" height="30" as="geometry" />
        </mxCell>
        <mxCell id="tnohbBcLHPByBjN4XRmJ-2" value="分论点" style="rounded=0;whiteSpace=wrap;html=1;" vertex="1" parent="1">
          <mxGeometry x="140" y="180" width="110" height="30" as="geometry" />
        </mxCell>
        <mxCell id="tnohbBcLHPByBjN4XRmJ-6" value="分论点" style="rounded=0;whiteSpace=wrap;html=1;" vertex="1" parent="1">
          <mxGeometry x="280" y="180" width="110" height="30" as="geometry" />
        </mxCell>
        <mxCell id="tnohbBcLHPByBjN4XRmJ-12" value="分论点" style="rounded=0;whiteSpace=wrap;html=1;" vertex="1" parent="1">
          <mxGeometry x="430" y="180" width="110" height="30" as="geometry" />
        </mxCell>
        <mxCell id="tnohbBcLHPByBjN4XRmJ-14" value="分论点" style="rounded=0;whiteSpace=wrap;html=1;" vertex="1" parent="1">
          <mxGeometry x="570" y="180" width="110" height="30" as="geometry" />
        </mxCell>
        <mxCell id="tnohbBcLHPByBjN4XRmJ-21" value="" style="strokeWidth=2;html=1;shape=mxgraph.flowchart.annotation_2;align=left;labelPosition=right;pointerEvents=1;rotation=90;" vertex="1" parent="1">
          <mxGeometry x="392.5" y="-87.5" width="50" height="435" as="geometry" />
        </mxCell>
      </root>
    </mxGraphModel>
  </diagram>
</mxfile>
